<?xml version="1.0" encoding="utf-8"?>
<!-- Generator: Adobe Illustrator 26.0.3, SVG Export Plug-In . SVG Version: 6.00 Build 0)  -->
<svg fill="white" version="1.1" id="Слой_1" xmlns="http://www.w3.org/2000/svg" xmlns:xlink="http://www.w3.org/1999/xlink" x="0px" y="0px"
	 viewBox="0 0 231.7 82" style="enable-background:new 0 0 231.7 82;" xml:space="preserve">
<g>
	<polygon class="st0" points="100.6,20.1 112.5,20.1 112.5,33.1 120.2,33.1 120.2,1.5 112.5,1.5 112.5,13.9 100.6,13.9 100.6,1.5 
		92.9,1.5 92.9,33.1 100.6,33.1 	"/>
	<path class="st0" d="M135.4,33.5c6.2,0,10.7-3.8,11.9-8.7h-8.2c-0.6,1.3-1.8,2.4-4,2.4c-2.5,0-4.5-1.6-4.7-4.8h17.4
		c0.1-0.7,0.2-1.5,0.2-2.2c0-7.6-5.2-12.5-12.5-12.5c-7.5,0-12.7,4.9-12.7,12.9S128,33.5,135.4,33.5z M135.3,13.8
		c2.6,0,4.7,1.6,4.8,4.3h-9.6C130.9,15.4,132.8,13.8,135.3,13.8z"/>
	<path class="st0" d="M159.9,33.5c3.7,0,6.4-1.7,7.8-3.9v3.6h7.7V8h-7.7v3.5c-1.4-2.2-4-3.9-7.8-3.9c-6.2,0-11,4.9-11,12.8
		S153.8,33.5,159.9,33.5z M162.2,14.4c2.9,0,5.5,2.2,5.5,6.2s-2.6,6.2-5.5,6.2s-5.5-2.2-5.5-6.2S159.3,14.4,162.2,14.4z"/>
	<polygon class="st0" points="223.4,8 217.6,23.7 211.8,8 204.3,8 203.2,8 196.2,8 190.7,25.9 185.3,8 177.1,8 186,33.1 195.4,33.1 
		203.8,9.5 213.4,32.3 207.7,45 215.9,45 231.7,8 	"/>
	<path class="st0" d="M104.7,38.4H92.9V70h11.8c10.1,0,16.6-6.4,16.6-15.8S114.8,38.4,104.7,38.4z M104.2,63.3h-3.7V45h3.7
		c5.8,0,9.2,3.4,9.2,9.2C113.5,60,110,63.3,104.2,63.3z"/>
	<path class="st0" d="M141.1,58.5c0,3.4-1.9,5.3-4.8,5.3c-2.9,0-4.8-1.9-4.8-5.3V44.9h-7.6v14.6c0,6.7,3.9,10.7,9.7,10.7
		c3.4,0,6-1.5,7.6-3.7v3.4h7.7v-25h-7.7L141.1,58.5L141.1,58.5z"/>
	<path class="st0" d="M181.1,60.6l-5.8-15.7h-8.5l0,0h-5v-6.1h-7.7v6.1h-3v6.4h3v10c0,6.5,3.7,8.7,8.9,8.7h3.9v-6.5h-2.7
		c-1.7,0-2.3-0.6-2.3-2.1V51.3h5V45l10.2,24.2L171.4,82h8.3l15.7-37h-8.3L181.1,60.6z"/>
</g>
<g>
	
		<linearGradient id="SVGID_1_" gradientUnits="userSpaceOnUse" x1="8.058363e-02" y1="55.3815" x2="68.1087" y2="9.1081" gradientTransform="matrix(1 0 0 -1 0 72.7323)">
		<stop  offset="0" style="stop-color:#088744"/>
		<stop  offset="1" style="stop-color:#08BA58"/>
	</linearGradient>
	<polygon class="st1" points="0.3,17.3 0,17.3 0.3,17.7 	"/>
</g>
<path class="st2" d="M72.4,0h-72v6.4h38.7c8.1,0,14.9,2.8,20.3,8.5s8.1,12.7,8.1,21s-2.7,15.3-8.1,21s-12.2,8.5-20.3,8.5H17.8
	l10.7-11.1h10.6c5.1,0,9.3-1.7,12.5-5.1s4.8-7.8,4.8-13.3s-1.6-9.9-4.8-13.3c-3.2-3.4-7.4-5.1-12.5-5.1h-8.6h-3.2H0.4v0.4l11.3,11.9
	h24.9l10,11.1H11.7v19.5L0.9,71.8h71.4V0H72.4z"/>
</svg>
